<svg xmlns="http://www.w3.org/2000/svg" viewBox="0 0 280 160" width="280" height="160">
  <defs>
    <linearGradient id="rbg" x1="0" y1="0" x2="0" y2="1">
      <stop offset="0%" stop-color="#1e2938"/>
      <stop offset="100%" stop-color="#232f40"/>
    </linearGradient>
  </defs>
  <!-- Dark slate background -->
  <rect width="280" height="160" fill="url(#rbg)"/>
  <!-- Water -->
  <path d="M0 88 Q40 80 80 86 Q120 92 160 84 Q200 76 240 82 Q260 85 280 80 L280 102 Q250 98 220 104 Q180 110 140 102 Q100 94 60 100 Q30 104 0 100Z" fill="#1a3550" opacity="0.6"/>
  <ellipse cx="220" cy="38" rx="30" ry="14" fill="#1a3550" opacity="0.4"/>
  <!-- Building blocks - urban areas -->
  <g opacity="0.5">
    <rect x="15" y="15" width="22" height="16" rx="1" fill="#2d3d50"/>
    <rect x="40" y="12" width="16" height="20" rx="1" fill="#324458"/>
    <rect x="60" y="18" width="26" height="14" rx="1" fill="#2d3d50"/>
    <rect x="90" y="14" width="18" height="18" rx="1" fill="#354860"/>
    <rect x="15" y="38" width="20" height="18" rx="1" fill="#354860"/>
    <rect x="38" y="40" width="28" height="14" rx="1" fill="#2d3d50"/>
    <rect x="70" y="36" width="15" height="22" rx="1" fill="#324458"/>
    <rect x="150" y="50" width="24" height="18" rx="1" fill="#2d3d50"/>
    <rect x="178" y="48" width="18" height="22" rx="1" fill="#354860"/>
    <rect x="200" y="54" width="22" height="14" rx="1" fill="#2d3d50"/>
    <rect x="25" y="108" width="20" height="16" rx="1" fill="#324458"/>
    <rect x="48" y="105" width="26" height="20" rx="1" fill="#2d3d50"/>
    <rect x="78" y="110" width="14" height="14" rx="1" fill="#354860"/>
    <rect x="135" y="112" width="24" height="16" rx="1" fill="#2d3d50"/>
    <rect x="162" y="108" width="18" height="22" rx="1" fill="#324458"/>
    <rect x="225" y="110" width="22" height="16" rx="1" fill="#2d3d50"/>
  </g>
  <!-- Green spaces -->
  <rect x="110" y="16" width="28" height="18" rx="3" fill="#1e3a2a" opacity="0.5"/>
  <rect x="240" y="55" width="24" height="16" rx="3" fill="#1e3a2a" opacity="0.45"/>
  <circle cx="105" cy="130" r="10" fill="#1e3a2a" opacity="0.4"/>
  <!-- Motorway (heavy yellow-orange) -->
  <path d="M0 68 Q70 58 140 65 Q210 72 280 62" fill="none" stroke="#d97706" stroke-width="3" opacity="0.6" stroke-linecap="round"/>
  <path d="M140 0 Q134 40 137 80 Q140 120 134 160" fill="none" stroke="#d97706" stroke-width="2.5" opacity="0.5" stroke-linecap="round"/>
  <!-- A-roads (white) -->
  <path d="M0 32 Q100 26 200 34 Q250 38 280 32" fill="none" stroke="#e2e8f0" stroke-width="2" opacity="0.35" stroke-linecap="round"/>
  <path d="M0 130 Q80 122 160 128 Q240 134 280 126" fill="none" stroke="#e2e8f0" stroke-width="1.8" opacity="0.3" stroke-linecap="round"/>
  <path d="M60 0 Q55 80 58 160" fill="none" stroke="#e2e8f0" stroke-width="1.8" opacity="0.3" stroke-linecap="round"/>
  <path d="M215 0 Q220 80 213 160" fill="none" stroke="#e2e8f0" stroke-width="1.5" opacity="0.25" stroke-linecap="round"/>
  <!-- B-roads (thinner white) -->
  <path d="M0 50 L280 48" fill="none" stroke="#94a3b8" stroke-width="1" opacity="0.25"/>
  <path d="M170 0 L168 160" fill="none" stroke="#94a3b8" stroke-width="0.8" opacity="0.2"/>
  <path d="M95 0 L90 160" fill="none" stroke="#94a3b8" stroke-width="0.8" opacity="0.2"/>
  <!-- Junction dots -->
  <circle cx="140" cy="65" r="3" fill="#d97706" opacity="0.5"/>
  <circle cx="59" cy="65" r="2" fill="#e2e8f0" opacity="0.25"/>
  <!-- Town labels (tiny decorative rectangles) -->
  <rect x="18" y="63" width="16" height="3" rx="1" fill="white" opacity="0.12"/>
  <rect x="200" y="42" width="20" height="3" rx="1" fill="white" opacity="0.1"/>
  <rect x="145" cy="125" width="18" height="3" rx="1" fill="white" opacity="0.1"/>
</svg>
